<svg width="1280" height="420" viewBox="0 0 1280 420" fill="none" xmlns="http://www.w3.org/2000/svg" role="img" aria-label="Incident Impact Calc cover">

  <defs>
    <linearGradient id="g" x1="0" x2="1" y1="0" y2="1">
      <stop offset="0" stop-color="#111827" stop-opacity=".34"/>
      <stop offset=".54" stop-color="#f8f5ef" stop-opacity="0"/>
      <stop offset="1" stop-color="#e11d48" stop-opacity=".30"/>
    </linearGradient>
    <filter id="grain" x="-20%" y="-20%" width="140%" height="140%">
      <feTurbulence type="fractalNoise" baseFrequency=".85" numOctaves="2" seed="13" result="noise"/>
      <feColorMatrix type="saturate" values="0"/>
      <feComponentTransfer><feFuncA type="table" tableValues="0 .10"/></feComponentTransfer>
      <feBlend mode="soft-light" in2="SourceGraphic"/>
    </filter>
  </defs>
  <rect width="1280" height="420" rx="30" fill="#f8f5ef"/>
  <rect width="1280" height="420" rx="30" fill="url(#g)" filter="url(#grain)"/>

  <rect x="0" y="0" width="426" height="420" fill="#111827" opacity=".18"/>
  <path d="M102 304c116-58 246-64 360-4 114 60 246 72 410-10 152-76 260-66 328-30" stroke="#e11d48" stroke-width="14" stroke-linecap="round" opacity=".64"/>
  <text x="92" y="166" fill="#111827" font-family="Space Grotesk, ui-sans-serif, system-ui" font-size="60" font-weight="850">Incident Impact Calc</text>
  <text x="96" y="226" fill="#475569" font-family="Space Grotesk, ui-sans-serif, system-ui" font-size="23">Check incident impact notes for missing users,...</text>
  <text x="96" y="286" fill="#e11d48" font-family="ui-monospace, SFMono-Regular, Menlo, monospace" font-size="18" font-weight="800">INCIDENT PRACTICE</text>
  <rect x="846" y="122" width="140" height="28" rx="8" fill="#111827" opacity=".85"/>
  <text x="862" y="141" fill="#111827" font-family="ui-monospace, SFMono-Regular, Menlo, monospace" font-size="13">vague-users</text>
  <rect x="846" y="176" width="224" height="28" rx="8" fill="#e11d48" opacity=".85"/>
  <text x="862" y="195" fill="#111827" font-family="ui-monospace, SFMono-Regular, Menlo, monospace" font-size="13">unknown-duration</text>
  <rect x="846" y="230" width="270" height="28" rx="8" fill="#111827" opacity=".85"/>
  <text x="862" y="249" fill="#111827" font-family="ui-monospace, SFMono-Regular, Menlo, monospace" font-size="13">unknown-revenue</text>
</svg>
